<?xml version="1.0" encoding="UTF-8"?>
<svg width="116px" height="26px" viewBox="0 0 116 26" version="1.1" xmlns="http://www.w3.org/2000/svg" xmlns:xlink="http://www.w3.org/1999/xlink">
    <!-- Generator: Sketch 53.2 (72643) - https://sketchapp.com -->
    <title>Medallia Logo</title>
    <desc>Created with Sketch.</desc>
    <defs>
        <polygon id="path-1" points="0.0764606965 0.0427641791 14.8699303 0.0427641791 14.8699303 17.5273114 0.0764606965 17.5273114"></polygon>
    </defs>
    <g id="TEMPLATES" stroke="none" stroke-width="1" fill="none" fill-rule="evenodd">
        <g id="1440-R4-Home" transform="translate(-100.000000, -27.000000)">
            <g id="Header">
                <g id="Medallia-Logo" transform="translate(100.000000, 27.000000)">
                    <polygon id="Fill-1" fill="#364045" points="19.0210567 3.12232836 11.4822209 13.0315622 3.94325572 3.12232836 5.17412935e-05 3.12232836 5.17412935e-05 25.5570945 4.32950448 25.5570945 4.32950448 10.8090149 11.3304896 19.5940398 11.5708279 19.5940398 18.6349373 10.7452438 18.6349373 25.5570945 22.9641313 25.5570945 22.9641313 3.12232836"></polygon>
                    <polygon id="Fill-2" fill="#364045" points="86.5812547 25.5571075 90.8369761 25.5571075 90.8369761 1.82738607 86.5812547 3.12234129"></polygon>
                    <polygon id="Fill-3" fill="#364045" points="78.6607622 25.5571075 82.9166129 25.5571075 82.9166129 1.82738607 78.6607622 3.12234129"></polygon>
                    <g id="Group-17" transform="translate(25.611940, 0.113831)">
                        <path d="M27.9700239,21.7723741 L27.8010886,21.8289015 C27.7913871,21.8321353 26.8233075,22.1547423 25.8448796,22.1547423 L25.7029791,22.1547423 C25.2560637,22.1547423 24.2093373,22.1547423 23.3237851,21.4751204 C22.3061632,20.6931801 21.7901731,19.2525731 21.7901731,17.1937871 C21.7901731,14.008593 23.2949393,12.1068418 25.8152577,12.1068418 C26.4589194,12.1068418 27.1296159,12.2333493 27.8087204,12.483001 L27.9700239,12.5426328 L27.9700239,21.7723741 Z M27.9700239,8.7812995 L27.660999,8.69967761 C26.8575861,8.48805572 25.9258547,8.3713791 25.0373274,8.3713791 C23.5883124,8.3713791 21.5176259,8.67432438 19.8814368,10.1185532 C18.1549592,11.6424637 17.2794965,14.1040557 17.2794965,17.4349015 C17.2794965,20.4564637 18.1025711,22.696991 19.7256955,24.094006 C21.0593274,25.2422746 22.920591,25.8242348 25.2578746,25.8242348 C28.1156756,25.8242348 30.7490488,24.9741254 32.0641831,24.4669313 L32.1738746,24.4251502 L32.1738746,1.85404577 L27.9700239,3.01473234 L27.9700239,8.7812995 Z" id="Fill-4" fill="#364045"></path>
                        <polygon id="Fill-6" fill="#364045" points="68.8217025 25.4432766 73.0774239 25.4432766 73.0774239 8.15638109 68.8217025 9.45133632"></polygon>
                        <polygon id="Fill-8" fill="#4050C6" points="68.0903005 3.02000995 71.1425194 6.11944279 74.1943502 3.06748259 71.1425194 0.0155223881"></polygon>
                        <path d="M45.0564607,21.3009333 C45.0564607,21.3009333 43.996799,22.6716896 41.4613463,22.6716896 C39.9219134,22.6716896 38.9253761,21.8250726 38.9253761,20.4065851 C38.9253761,18.5655005 40.7699532,17.9094209 42.4961721,17.9094209 C44.1064905,17.9094209 45.0564607,18.1372119 45.0564607,18.1372119 L45.0564607,21.3009333 Z M41.7587294,8.32137114 C38.6339433,8.32137114 36.4340328,9.53871443 36.4340328,9.53871443 L36.4340328,13.0273711 L36.4657244,13.0273711 C37.1502617,12.7543065 38.8215055,11.915192 41.563794,11.915192 C42.9393363,11.915192 43.8823214,12.2080478 44.4468189,12.8108338 C45.0272269,13.4303065 45.0176547,14.6458388 45.0105403,15.3783662 C45.0105403,15.3783662 43.697993,15.0442468 42.1452368,15.0442468 C37.2920328,15.0442468 34.619207,17.1488239 34.619207,20.4596199 C34.619207,23.7704159 37.4017244,25.8059184 40.4985701,25.8059184 C43.5951572,25.8059184 45.3310776,24.462197 45.3310776,24.462197 L45.3310776,25.3864259 L49.4126896,25.3864259 L49.4126896,22.7499483 L49.4126896,21.6156498 L49.4126896,14.8962667 C49.4126896,9.00319204 45.0444308,8.32137114 41.7587294,8.32137114 L41.7587294,8.32137114 Z" id="Fill-10" fill="#364045"></path>
                        <g id="Group-14" transform="translate(75.283582, 8.278607)">
                            <mask id="mask-2" fill="white">
                                <use xlink:href="#path-1"></use>
                            </mask>
                            <g id="Clip-13"></g>
                            <path d="M10.5137144,13.0223264 C10.5137144,13.0223264 9.45405274,14.3930826 6.91847065,14.3930826 C5.37916716,14.3930826 4.38262985,13.5464657 4.38262985,12.1279781 C4.38262985,10.2868935 6.22720697,9.63081393 7.95342587,9.63081393 C9.56374428,9.63081393 10.5137144,9.85860498 10.5137144,9.85860498 L10.5137144,13.0223264 Z M7.21598308,0.0427641791 C4.09119701,0.0427641791 1.89128657,1.26010746 1.89128657,1.26010746 L1.89128657,4.74876418 L1.92297811,4.74876418 C2.60738607,4.4756995 4.2787592,3.63658507 7.02104776,3.63658507 C8.39659005,3.63658507 9.33957512,3.9294408 9.90407264,4.53222687 C10.4844806,5.1516995 10.4749085,6.36723184 10.467794,7.0997592 C10.467794,7.0997592 9.15524677,6.7656398 7.60249055,6.7656398 C2.74928657,6.7656398 0.0764606965,8.87021692 0.0764606965,12.1810129 C0.0764606965,15.491809 2.85897811,17.5273114 5.95582388,17.5273114 C9.05241095,17.5273114 10.788202,16.18359 10.788202,16.18359 L10.788202,17.1078189 L14.8699433,17.1078189 L14.8699433,14.4713413 L14.8699433,13.3370428 L14.8699433,6.6176597 C14.8699433,0.724585075 10.5015552,0.0427641791 7.21598308,0.0427641791 L7.21598308,0.0427641791 Z" id="Fill-12" fill="#364045" mask="url(#mask-2)"></path>
                        </g>
                        <path d="M4.30892438,15.573392 C4.30892438,15.1761483 4.36299403,14.4145164 4.72000896,13.7443373 C5.1757204,12.8890537 6.21675522,11.8688448 7.95474527,11.8688448 C9.70088458,11.8688448 10.6418,12.8968149 11.0408547,13.7593423 C11.3580289,14.4456905 11.3723871,15.2016308 11.3723871,15.573392 L4.30892438,15.573392 Z M15.1660587,16.8244965 C15.1660587,13.7737005 14.4258995,11.5587851 12.9661483,10.1859592 C11.7779095,9.06834726 10.0943771,8.33711343 7.96263582,8.33711343 C5.9999592,8.33711343 4.09238706,9.01350149 2.72926269,10.1925562 C0.935262687,11.7450537 0.025521393,14.0898398 0.025521393,17.1617204 C0.025521393,25.0222577 5.90009851,25.8705562 8.42584975,25.8705562 C10.9012826,25.8705562 13.1676806,24.9790537 14.0722478,24.5722378 L14.0722478,21.0217502 C13.4527751,21.3944169 11.6092328,22.359392 9.12047662,22.359392 C7.78296418,22.359392 5.96839701,21.8575015 4.91895423,20.2492527 C4.50179005,19.6101184 4.34087463,18.9734418 4.27943184,18.6060786 L15.1095313,18.6060786 C15.1095313,18.6060786 15.1660587,17.5567652 15.1660587,16.8244965 L15.1660587,16.8244965 Z" id="Fill-15" fill="#364045"></path>
                    </g>
                </g>
            </g>
        </g>
    </g>
</svg>